<svg width="26" height="26" viewBox="0 0 26 26" fill="none" xmlns="http://www.w3.org/2000/svg">
<path d="M6.22917 11.0942C7.90917 14.3958 10.61 17.0967 13.9175 18.7767L16.4842 16.2042C16.805 15.8833 17.2658 15.79 17.6683 15.9183C18.975 16.35 20.3808 16.5833 21.8333 16.5833C22.4808 16.5833 23 17.1025 23 17.75V21.8333C23 22.4808 22.4808 23 21.8333 23C10.8783 23 2 14.1217 2 3.16667C2 2.51917 2.525 2 3.16667 2H7.25C7.8975 2 8.41667 2.51917 8.41667 3.16667C8.41667 4.61917 8.65 6.025 9.08167 7.33167C9.21 7.73417 9.11667 8.195 8.79583 8.51583L6.22917 11.0942V11.0942Z" fill="white"/>
</svg>
