<svg width="50" height="93" viewBox="0 0 50 93" fill="none" xmlns="http://www.w3.org/2000/svg">
<path fill-rule="evenodd" clip-rule="evenodd" d="M17.8101 22.2029C17.4237 22.2949 17.0548 22.6459 16.8414 23.0016L15.5552 22.2298C15.8794 21.6895 16.5319 20.9653 17.4626 20.7437C18.49 20.4991 19.5687 20.9242 20.547 22.1472L19.3757 23.0842C18.6338 22.1568 18.0998 22.134 17.8101 22.2029Z" fill="#289BDE"/>
<path fill-rule="evenodd" clip-rule="evenodd" d="M32.8623 22.2029C32.4759 22.2949 32.1071 22.6459 31.8937 23.0016L30.6074 22.2298C30.9316 21.6895 31.5842 20.9653 32.5149 20.7437C33.5422 20.4991 34.6209 20.9242 35.5993 22.1472L34.428 23.0842C33.6861 22.1568 33.152 22.134 32.8623 22.2029Z" fill="#289BDE"/>
<path fill-rule="evenodd" clip-rule="evenodd" d="M23.6625 33.8282C20.5631 33.2155 18.0573 31.1356 16.6877 29.4229L17.8592 28.4861C19.0849 30.0188 21.3061 31.8334 23.9534 32.3566C26.5271 32.8654 29.6471 32.1832 32.8315 28.4666L33.9706 29.4425C30.4815 33.5148 26.8354 34.4553 23.6625 33.8282Z" fill="#289BDE"/>
<path fill-rule="evenodd" clip-rule="evenodd" d="M37.1439 4.16703C36.1404 3.44807 34.7555 3.05946 32.9776 3.43013C28.742 1.08147 20.277 -2.46722 12.5093 3.63593C12.4931 3.64866 12.4774 3.66206 12.4623 3.67608C11.4587 4.60796 10.5099 5.84268 9.75258 7.09176C8.99814 8.33615 8.4033 9.64526 8.14383 10.7387C8.01549 11.2796 7.95419 11.8284 8.03939 12.312C8.12839 12.8171 8.39917 13.3283 8.97612 13.5724C9.49876 13.7935 10.1023 13.717 10.6925 13.5169C10.996 13.4139 11.3265 13.2681 11.6851 13.0786V19.5056C11.0504 19.6147 10.2987 19.8605 9.64095 20.3213C8.71707 20.9685 7.99739 22.0344 8.06885 23.6095C8.13974 25.172 8.94157 26.2364 9.87956 26.9036C10.5622 27.3892 11.3246 27.6733 11.9649 27.8161C12.379 29.8338 13.2696 32.0232 14.7465 33.918C16.9233 36.7106 20.3623 38.8435 25.3371 38.8435C30.3216 38.8435 33.6684 36.6575 35.7944 33.9165C37.2863 31.9931 38.1726 29.8056 38.6293 27.9202C39.2122 27.7633 39.8686 27.4931 40.4642 27.0694C41.4022 26.4022 42.204 25.3378 42.2749 23.7753C42.3464 22.2002 41.6267 21.1343 40.7028 20.4871C40.1561 20.1041 39.5445 19.8696 38.9892 19.7387V6.9136C38.9892 6.84391 38.9794 6.77456 38.9603 6.70756C38.7423 5.94472 38.1719 4.90359 37.1439 4.16703ZM38.9892 21.2961V25.7291C38.9892 25.7508 38.9882 25.7724 38.9863 25.7941C38.9743 25.9319 38.9595 26.0741 38.9417 26.2201C39.1639 26.119 39.386 25.9956 39.5947 25.8471C40.2331 25.393 40.7304 24.7225 40.7764 23.7073C40.8219 22.7046 40.3968 22.1041 39.8422 21.7156C39.5781 21.5306 39.2816 21.3934 38.9892 21.2961ZM11.7279 26.1872C11.6991 25.8444 11.6851 25.5116 11.6851 25.1915V21.036C11.2929 21.1301 10.8663 21.2943 10.5016 21.5499C9.94695 21.9384 9.52182 22.5388 9.56731 23.5415C9.61337 24.5567 10.1107 25.2272 10.749 25.6813C11.0602 25.9027 11.401 26.0684 11.7279 26.1872ZM11.0353 7.86941C11.7335 6.71765 12.5903 5.60958 13.4605 4.79617C20.3648 -0.607434 27.9279 2.37059 32.1133 4.66642V8.95648C31.9952 9.29673 31.5925 9.90715 30.8234 10.6235C30.0254 11.3667 28.9175 12.1442 27.5815 12.7485C24.9182 13.9534 21.3873 14.4569 17.5905 12.685C17.3207 12.5591 17.0649 12.4394 16.8225 12.3259L16.8183 12.3239L16.8174 12.3235L16.8173 12.3235L16.8172 12.3234C15.472 11.6937 14.5379 11.2564 13.898 11.0232C13.5281 10.8884 13.1578 10.7826 12.8172 10.7916C12.6318 10.7964 12.4335 10.8354 12.2435 10.9374C12.1138 11.0071 12.008 11.0955 11.9219 11.1921C11.1906 11.6721 10.628 11.9549 10.2109 12.0963C10.1691 12.1104 10.1296 12.1229 10.0925 12.1338C10.3098 11.3294 10.7858 10.4047 11.6384 9.69375C12.7484 8.76811 14.6081 8.11316 17.6636 8.72425C20.9756 9.38664 23.1927 9.09693 24.6184 8.326C26.0673 7.54252 26.6245 6.29646 26.6245 5.3009H25.1245C25.1245 5.7389 24.8752 6.4819 23.905 7.00655C22.9115 7.54373 21.0968 7.88119 17.9578 7.25338C14.5622 6.57427 12.2109 7.26328 10.6777 8.54174C10.6596 8.55686 10.6416 8.57206 10.6237 8.58732C10.7521 8.34982 10.8896 8.10974 11.0353 7.86941ZM32.1133 11.4632C32.0266 11.5498 31.9373 11.6359 31.8457 11.7212C30.9301 12.5739 29.6861 13.4428 28.1998 14.1152C25.2185 15.4639 21.2232 16.0356 16.9562 14.0443C16.6776 13.9143 16.4165 13.7921 16.1717 13.6775L16.1716 13.6775C14.8144 13.0424 13.9565 12.641 13.3844 12.4326C13.3086 12.4049 13.2425 12.3825 13.1851 12.3645V25.1915C13.1851 27.4593 13.9987 30.5187 15.9295 32.9958C17.8384 35.4446 20.8504 37.3435 25.3371 37.3435C29.8141 37.3435 32.7392 35.4081 34.6092 32.9972C36.4918 30.5701 37.3137 27.643 37.4892 25.696V18.4121C35.3946 18.3474 34.0238 17.3262 33.2015 16.0572C32.378 14.7864 32.1133 13.2906 32.1133 12.2895V11.4632ZM37.4892 16.9111V7.02626C37.3275 6.53875 36.9367 5.86389 36.2702 5.38636C35.6789 4.96269 34.8257 4.6609 33.6133 4.83969V12.2895C33.6133 13.0803 33.8324 14.2725 34.4603 15.2415C35.0359 16.1297 35.9607 16.8501 37.4892 16.9111Z" fill="#289BDE"/>
</svg>
