<svg width="50" height="93" viewBox="0 0 50 93" fill="none" xmlns="http://www.w3.org/2000/svg">
<line x1="25.5" y1="47" x2="25.5" y2="93" stroke="#289BDE" stroke-dasharray="4 4"/>
<path fill-rule="evenodd" clip-rule="evenodd" d="M11.8055 2.00622C10.2438 2.2286 9.17912 2.59179 8.65507 3.04097C8.02668 3.57959 7.75248 4.03451 7.65092 4.38196C7.55392 4.71379 7.59489 5.0118 7.73169 5.2992C8.03188 5.92991 8.78957 6.48305 9.47158 6.78617L8.86238 8.15688C8.38477 7.94461 7.79659 7.60166 7.28532 7.13352C6.79199 7.95279 6.56658 8.68371 6.51301 9.32459C6.4447 10.1417 6.65062 10.871 7.0279 11.5192C7.67195 12.6259 8.80901 13.4791 9.84275 14.0018C9.93901 13.7128 10.0352 13.4655 10.1287 13.2571C9.52818 12.9069 9.04691 12.4017 8.79048 11.7562C8.47132 10.9528 8.54384 10.0412 8.99636 9.1361C9.34217 8.44449 9.775 7.93957 10.2892 7.6243C10.81 7.30502 11.3606 7.21346 11.8756 7.26237C12.8629 7.35613 13.7163 7.95992 14.1975 8.44118L13.1369 9.50184C12.7848 9.14976 12.2382 8.80355 11.7338 8.75565C11.5029 8.73373 11.2848 8.77341 11.0733 8.90309C10.8552 9.03678 10.5922 9.29852 10.338 9.80692C10.0405 10.4019 10.0505 10.8652 10.1845 11.2024C10.3224 11.5496 10.6363 11.8744 11.1501 12.0946C12.1869 12.539 13.9272 12.487 15.7697 11.3355C17.7079 10.1241 20.5284 9.44281 22.9825 9.95669C24.2244 10.2167 25.3995 10.7898 26.2997 11.785C26.5218 12.0306 26.7241 12.2985 26.905 12.5892C28.1726 11.8355 29.7694 11.5565 31.4624 12.2821C34.6208 13.6357 35.417 16.6062 35.417 17.9714V21.9714C35.417 22.5693 35.0107 22.9201 34.6631 23.0868C34.3337 23.2448 33.9415 23.3067 33.5968 23.3319C33.0594 23.3713 32.4597 23.3323 31.9697 23.2724C31.6866 23.6572 31.3423 23.9809 30.9397 24.2325C30.4167 24.5594 29.831 24.7424 29.2088 24.7889C28.7989 26.4001 28.788 28.3193 29.0145 30.2821C29.1384 30.0963 29.2697 29.9108 29.4078 29.7295C30.0411 28.898 30.9239 28.0091 31.9851 27.7438C32.9815 27.4947 34.2793 27.1372 35.3802 26.5577C36.4962 25.9704 37.2481 25.2416 37.4316 24.3243L38.9024 24.6185C38.5859 26.2013 37.3378 27.2225 36.0788 27.8851C34.8047 28.5557 33.3525 28.9481 32.3489 29.199C31.81 29.3338 31.1929 29.8615 30.6011 30.6384C30.0639 31.3438 29.6364 32.1362 29.3966 32.6747C29.9263 35.3116 30.7469 37.7283 31.3582 39.1804L31.7966 40.2214H17.7656L18.543 39.0554C19.2737 37.9593 19.747 36.5974 20.0361 35.3408C20.1426 34.878 20.2223 34.4372 20.2805 34.039C18.5752 35.0156 16.3809 35.5 13.93 34.683C11.3845 33.8345 10.0021 31.808 9.32988 29.7688C8.80085 28.1641 8.68713 26.4887 8.80136 25.2175C8.38611 25.213 8.0348 25.2043 7.74204 25.1893C7.29275 25.1662 6.88947 25.1259 6.59837 25.0201C6.45444 24.9678 6.21223 24.8563 6.0526 24.6042C5.86339 24.3055 5.89998 23.9953 5.97473 23.7914C6.04049 23.6121 6.14944 23.4672 6.22771 23.3722C6.31334 23.2684 6.41413 23.1639 6.51184 23.0662C6.57735 23.0007 6.64708 22.9324 6.71999 22.861L6.72053 22.8605L6.72141 22.8596L6.72204 22.859L6.7221 22.8589L6.72237 22.8587L6.7224 22.8586C7.52776 22.0702 8.72031 20.9027 8.92089 18.8969C9.0605 17.5008 9.24503 16.3731 9.44393 15.4752C8.171 14.8825 6.62629 13.8113 5.73146 12.2737C5.22123 11.397 4.9209 10.3638 5.01822 9.19963C5.10702 8.13742 5.52259 7.01575 6.33288 5.84625C6.09111 5.28909 6.01061 4.64717 6.21117 3.96109C6.41898 3.25021 6.90728 2.56346 7.67889 1.90208C8.55484 1.15126 10.0027 0.747788 11.5941 0.521201C13.2261 0.288821 15.1672 0.22338 17.1679 0.259144C21.1723 0.330728 25.5066 0.809882 28.2793 1.22999L28.284 1.23069L28.284 1.2307C31.6934 1.76903 38.5748 5.17296 39.4139 14.4036L37.9201 14.5394C37.1594 6.17218 30.9771 3.17554 28.0523 2.7127C25.3249 2.29956 21.0605 1.82897 17.1411 1.7589C15.1793 1.72384 13.3266 1.78965 11.8055 2.00622ZM21.9072 32.8476C21.8745 33.5318 21.7563 34.5539 21.4979 35.6771C21.2757 36.6433 20.9431 37.7134 20.454 38.7214H29.5641C28.9555 37.0909 28.2703 34.8499 27.8296 32.4705C27.3516 29.89 27.1439 27.0592 27.6988 24.652C27.2478 24.5418 26.7894 24.3711 26.3318 24.1423L27.0026 22.8007C28.3466 23.4727 29.4311 23.4065 30.1447 22.9605C30.8588 22.5142 31.4172 21.5527 31.4172 19.9715C31.4172 18.927 30.8141 18.1754 29.9044 17.626C28.9827 17.0693 27.8477 16.7933 27.0925 16.7178L26.4676 16.6553L26.4194 16.029C26.3949 15.7112 26.3541 15.414 26.2988 15.1361C25.7337 15.8967 25.417 16.7642 25.417 17.4714C25.417 18.2743 25.7405 19.1063 26.28 19.7634C26.6081 20.1631 26.9988 20.4778 27.417 20.6819V18.2214H28.167C28.7677 18.2214 29.2861 18.3465 29.7007 18.616C30.1244 18.8914 30.3774 19.2773 30.5063 19.6803C30.7487 20.4378 30.5605 21.2572 30.3634 21.75L30.244 22.0484L29.9455 22.1678C29.3213 22.4175 28.689 22.4921 28.0814 22.4223C26.8932 22.2857 25.8527 21.607 25.1207 20.7152C24.3879 19.8226 23.917 18.6616 23.917 17.4714C23.917 16.1209 24.6205 14.6212 25.715 13.5219C25.5577 13.2469 25.3801 13.0045 25.1872 12.7912C24.5401 12.0757 23.671 11.6334 22.6751 11.4248C20.6537 11.0016 18.2242 11.5703 16.5647 12.6075C14.8226 13.6963 13.014 14.0351 11.546 13.7669L11.527 13.8065C11.4219 14.0299 11.295 14.3574 11.1614 14.8091C10.8944 15.7121 10.61 17.0807 10.4135 19.0461C10.1792 21.3889 8.85525 22.8624 8.00936 23.6997C8.42515 23.7156 8.96774 23.7215 9.66717 23.7215H10.5949L10.4005 24.6286C10.2827 25.1784 10.2254 25.9607 10.2844 26.838C11.4374 27.0149 13.5489 26.8416 15.0908 24.9913L16.2431 25.9516C14.4557 28.0966 12.0794 28.4913 10.5011 28.3694C10.5689 28.679 10.6527 28.9905 10.7545 29.2992C11.3322 31.0517 12.4498 32.6085 14.4043 33.26C16.4156 33.9304 18.1915 33.526 19.6002 32.6996C21.0313 31.86 22.0507 30.6007 22.4862 29.6572L23.8481 30.2858C23.474 31.0964 22.8073 32.0245 21.9072 32.8476ZM27.539 13.9599C27.6764 14.378 27.7808 14.8282 27.8494 15.3111C28.7007 15.4639 29.7548 15.7832 30.6799 16.342C31.8535 17.0509 32.9172 18.216 32.9172 19.9715C32.9172 20.6433 32.8324 21.2685 32.667 21.8318C32.9471 21.85 33.2327 21.8546 33.4871 21.8359C33.6814 21.8217 33.8229 21.796 33.917 21.7693V17.9714C33.917 17.0033 33.3132 14.7072 30.8716 13.6608C29.6392 13.1326 28.4856 13.3461 27.539 13.9599ZM29.0687 20.8787C29.0179 20.8914 28.9674 20.9022 28.917 20.9112V19.8976C28.9945 19.9575 29.0445 20.0339 29.0777 20.1375C29.1422 20.3391 29.1299 20.6142 29.0687 20.8787ZM7.11098 23.6104C7.10485 23.6082 7.10645 23.6082 7.11379 23.6114L7.11098 23.6104ZM14.5857 19.4826C13.4691 19.2644 12.5788 18.5372 12.0908 17.9516L13.2432 16.9913C13.5885 17.4057 14.1982 17.8785 14.8733 18.0104C15.4731 18.1276 16.2476 18.0032 17.0908 16.9913L18.2432 17.9516C17.0864 19.3397 15.7775 19.7154 14.5857 19.4826ZM36.417 18.4714V21.4714H37.917V18.4714H36.417ZM39.917 24.9714V14.9714H41.417V24.9714H39.917ZM43.417 11.4714V28.9714H44.917V11.4714H43.417Z" fill="#289BDE"/>
</svg>
