<svg width="50" height="93" viewBox="0 0 50 93" fill="none" xmlns="http://www.w3.org/2000/svg">
<line x1="25.5" y1="47" x2="25.5" y2="93" stroke="#289BDE" stroke-dasharray="4 4"/>
<path fill-rule="evenodd" clip-rule="evenodd" d="M19.3786 19.0474L14.1895 19.0474L14.1895 17.5474L19.3786 17.5474L19.3786 19.0474Z" fill="#289BDE"/>
<path fill-rule="evenodd" clip-rule="evenodd" d="M19.3786 25.1013L14.1895 25.1013L14.1895 23.6013L19.3786 23.6013L19.3786 25.1013Z" fill="#289BDE"/>
<path fill-rule="evenodd" clip-rule="evenodd" d="M35.8108 19.0474L30.6216 19.0474L30.6216 17.5474L35.8108 17.5474L35.8108 19.0474Z" fill="#289BDE"/>
<path fill-rule="evenodd" clip-rule="evenodd" d="M35.8108 25.1013L30.6216 25.1013L30.6216 23.6013L35.8108 23.6013L35.8108 25.1013Z" fill="#289BDE"/>
<path fill-rule="evenodd" clip-rule="evenodd" d="M28.0271 19.0474L22.8379 19.0474L22.8379 17.5474L28.0271 17.5474L28.0271 19.0474Z" fill="#289BDE"/>
<path fill-rule="evenodd" clip-rule="evenodd" d="M28.0271 25.1013L22.8379 25.1013L22.8379 23.6013L28.0271 23.6013L28.0271 25.1013Z" fill="#289BDE"/>
<path fill-rule="evenodd" clip-rule="evenodd" d="M17.7637 6.05405V4.22974H13C11.6193 4.22974 10.5 5.34903 10.5 6.72974V11.0608H39.5V6.72974C39.5 5.34902 38.3807 4.22974 37 4.22974H32.2363V6.05405H30.7363V4.22974H19.2637V6.05405H17.7637ZM30.7363 2.72974H19.2637V0H17.7637V2.72974H13C10.7909 2.72974 9 4.5206 9 6.72974V29C9 31.2091 10.7909 33 13 33H37C39.2091 33 41 31.2091 41 29V6.72974C41 4.5206 39.2091 2.72974 37 2.72974H32.2363V0H30.7363V2.72974ZM10.5 12.5608V29C10.5 30.3807 11.6193 31.5 13 31.5H37C38.3807 31.5 39.5 30.3807 39.5 29V12.5608H10.5Z" fill="#289BDE"/>
</svg>
