<svg width="52" height="52" viewBox="0 0 52 52" fill="none" xmlns="http://www.w3.org/2000/svg">
<rect width="52" height="52" fill="white"/>
<path fill-rule="evenodd" clip-rule="evenodd" d="M27.6379 8.5C22.414 8.5 18.2826 11.2004 16.4005 13.2087L17.7005 14.2153C19.7277 12.0243 24.4957 9.10211 31.0811 11.0303C35.66 12.3709 37.9363 15.7378 39.0536 19.0748C39.5651 20.6024 39.8401 22.1396 39.9879 23.5H41.4167L41.4881 23.4999C41.5441 23.4997 41.6044 23.4996 41.668 23.5002C41.54 13.9591 34.0896 8.5 27.6379 8.5ZM40.1597 27.2339C40.1597 26.6954 40.1597 25.9221 40.1093 25H41.4167C41.9838 25 42.2307 25.0244 42.3815 25.1245C42.4478 25.1685 42.6739 25.3496 42.6739 26.25V27.8057C40.2567 28.1669 38.4033 30.243 38.4033 32.75C38.4033 35.5114 40.652 37.75 43.4259 37.75C46.1998 37.75 48.4485 35.5114 48.4485 32.75C48.4485 30.2429 46.5949 28.1667 44.1775 27.8056V26.25C44.1775 25.1504 43.9013 24.3316 43.2143 23.8756C43.1987 23.8653 43.183 23.8552 43.1672 23.8454C43.1712 23.8142 43.1733 23.7823 43.1733 23.75C43.1733 13.1789 34.9281 7 27.6379 7C21.8665 7 17.3309 9.9882 15.2488 12.2417C15.2352 12.2564 15.2223 12.2715 15.2101 12.287L13.709 11.1248L13.6626 11.0984C12.6863 10.543 11.7524 10.3004 10.862 10.3693C9.96906 10.4385 9.19827 10.8149 8.54034 11.3607C7.25997 12.4229 6.32332 14.199 5.5678 15.9539C4.92112 17.4561 4.53476 19.502 4.30671 21.3981C4.07683 23.3093 4 25.1393 4 26.2499V33.75V38.7812L4.00261 38.8123C4.21941 41.4023 5.27263 43.0967 6.56592 44.1343C7.81717 45.1383 9.24574 45.4898 10.2339 45.4997C12.154 45.7047 13.4936 45.3155 14.3672 44.6068C15.2381 43.9005 15.5488 42.9526 15.5488 42.2499C15.5488 40.962 15.5195 39.0658 15.4869 36.9647V36.9647V36.9646V36.9645V36.9644C15.4646 35.5241 15.4408 33.9876 15.424 32.4846C15.3821 28.7518 15.3842 25.2667 15.5442 23.8329C15.7895 21.635 16.2374 19.8224 16.756 18.4524C17.2838 17.058 17.856 16.1981 18.2993 15.8199L18.362 15.7663L18.4116 15.7005C19.7724 13.8943 24.1898 10.5758 30.6577 12.4696C34.6173 13.6289 36.6102 16.512 37.6275 19.55C38.6522 22.6102 38.6561 25.7499 38.6561 27.2499C38.6561 27.6641 38.9927 27.9999 39.4079 27.9999C39.8231 27.9999 40.1597 27.6641 40.1597 27.2499V27.2342V27.2339ZM5.50358 34.5H8.21728C8.91462 34.5887 9.94468 34.527 10.8402 34.0124C11.8206 33.4492 12.5353 32.4006 12.5353 30.75V23.25C12.5353 22.5668 12.6519 21.3577 13.0114 20.0336C13.3715 18.7073 13.9608 17.319 14.8718 16.2308C15.138 15.9128 15.0954 15.4399 14.7767 15.1744C14.458 14.9088 13.9839 14.9513 13.7177 15.2693C12.6197 16.581 11.9534 18.1927 11.5601 19.6414C11.1662 21.0923 11.0317 22.4332 11.0317 23.25V30.75C11.0317 31.8994 10.5743 32.4342 10.0898 32.7126C9.54462 33.0258 8.84831 33.075 8.37372 33.0075L8.32094 33H5.50358V26.2499C5.50358 25.1939 5.57743 23.4238 5.79959 21.5768C6.02358 19.7145 6.39061 17.8438 6.94936 16.5459C7.70062 14.8008 8.52189 13.3269 9.5017 12.5141C9.97386 12.1224 10.4587 11.9051 10.9784 11.8649C11.4905 11.8252 12.1118 11.9518 12.8727 12.376L16.7046 15.343C16.2093 15.9876 15.7482 16.8688 15.3494 17.9225C14.7797 19.4274 14.3068 21.3648 14.0499 23.6669C13.8771 25.2148 13.8791 28.813 13.9205 32.5014C13.9375 34.0226 13.9615 35.5662 13.9838 37.0076L13.9838 37.0085L13.9838 37.0093L13.9838 37.0095C14.0162 39.0975 14.0452 40.9707 14.0452 42.2499C14.0452 42.5472 13.904 43.0494 13.4187 43.443C12.9423 43.8294 12.0343 44.1897 10.3595 44.0045L10.3182 43.9999H10.2767C9.59183 43.9999 8.48224 43.747 7.50824 42.9655C6.56249 42.2067 5.69404 40.9096 5.50358 38.7181V34.5ZM46.9449 32.75C46.9449 34.68 45.3724 36.25 43.4259 36.25C41.4794 36.25 39.9069 34.68 39.9069 32.75C39.9069 30.82 41.4794 29.25 43.4259 29.25C45.3724 29.25 46.9449 30.82 46.9449 32.75Z" fill="#289BDE"/>
</svg>
