<svg width="52" height="52" viewBox="0 0 52 52" fill="none" xmlns="http://www.w3.org/2000/svg">
<rect width="52" height="52" fill="white"/>
<path fill-rule="evenodd" clip-rule="evenodd" d="M36.9223 4C36.8937 4 36.8651 4.00159 36.8367 4.00475C36.095 4.0873 35.3502 4.15898 34.6134 4.22991C32.7839 4.40598 31.0032 4.57737 29.4387 4.89878C27.2288 5.35277 25.236 6.14093 23.9646 7.83862C22.1167 10.3061 20.911 13.357 19.7285 17.5018C19.7263 17.5099 19.7241 17.518 19.7221 17.5261L19.4149 18.7565L16.232 16.398C16.0974 16.2983 15.9405 16.2501 15.7849 16.25L15.7835 16.25H8.75179C8.33659 16.25 8 16.5858 8 17V29C8 29.4142 8.33659 29.75 8.75179 29.75H10.9134L9.01019 44.9069C8.95859 45.3179 9.25073 45.6928 9.66271 45.7443C10.0747 45.7957 10.4505 45.5043 10.5021 45.0933L11.5535 36.7198C11.6207 36.7395 11.6917 36.75 11.7653 36.75H15.7834C15.857 36.75 15.9281 36.7394 15.9954 36.7198L17.0468 45.0933C17.0984 45.5043 17.4742 45.7957 17.8862 45.7443C18.2982 45.6928 18.5903 45.3179 18.5387 44.9069L16.5353 28.9513V28.7202C16.6397 28.6898 16.7392 28.6363 16.8257 28.5592L19.8476 25.8637C20.3492 27.0076 21.6278 29.2457 23.5295 30.6741C24.5959 31.475 25.7121 32.856 26.6446 34.3646C27.5753 35.8703 28.269 37.4151 28.5376 38.4909L28.5446 38.5192C28.8379 39.6941 29.4539 42.1624 30.8613 44.12C31.5789 45.1181 32.5272 46.0205 33.7788 46.541C35.0411 47.066 36.542 47.1731 38.3016 46.6925C39.8719 46.2636 41.0572 45.603 41.9362 44.7627C42.8161 43.9216 43.3534 42.9345 43.6783 41.9064C44.2106 40.2225 44.1842 38.3512 44.1623 36.7985V36.7983C44.1582 36.5043 44.1542 36.2218 44.1542 35.9541V11.2342C44.1542 9.40757 43.9057 7.56553 42.8035 6.18339C41.6695 4.76142 39.7811 3.99995 36.9223 4ZM21.012 24.8251C21.0828 24.8959 21.1407 24.9817 21.18 25.0803C21.5444 25.9925 22.7303 28.1664 24.4564 29.4628C25.7408 30.4276 26.9754 31.9894 27.9529 33.5708C28.9322 35.1551 29.7078 36.8474 30.0269 38.1259C30.3242 39.3169 30.8851 41.5331 32.1109 43.2382C32.7157 44.0794 33.457 44.7587 34.3726 45.1395C35.2774 45.5158 36.4212 45.6294 37.8939 45.2272C39.2621 44.8535 40.2072 44.3034 40.8709 43.6689C41.5338 43.0353 41.9515 42.2834 42.2142 41.4522C42.666 40.0229 42.6467 38.4434 42.6276 36.8866C42.6238 36.5744 42.62 36.2631 42.62 35.9541V11.2342C42.62 9.48079 42.3652 8.08564 41.5996 7.12567C40.8698 6.21051 39.5365 5.52738 36.9647 5.52002C36.1771 5.60726 35.4115 5.68091 34.6699 5.75225C32.8794 5.92449 31.2293 6.08323 29.7502 6.38708C27.6626 6.81595 26.1291 7.49919 25.1967 8.74429C23.52 10.9832 22.3755 13.8146 21.2083 17.9032L20.7486 19.7448L22.6395 21.146C22.6381 20.975 22.6381 20.8156 22.6381 20.6704V20.6514C22.6381 19.6717 22.8733 18.3954 23.2064 17.1133C23.5429 15.8183 23.9937 14.4639 24.4551 13.3089C25.0793 11.7461 25.8802 10.603 26.878 9.77022C27.8744 8.9387 29.0199 8.45614 30.2697 8.14321C30.9169 7.98116 32.4619 7.83049 33.8358 7.72113C35.2297 7.61018 36.5922 7.53148 36.9224 7.53148C37.7754 7.53148 38.5257 7.64872 39.1537 7.96224C39.8042 8.28696 40.2603 8.79052 40.5672 9.44107C40.8637 10.0694 41.0192 10.8299 41.106 11.6923C41.1933 12.5598 41.2157 13.5847 41.2157 14.7657V27.1256C41.2157 27.7083 41.0656 28.1819 40.8013 28.5921C40.5534 28.9769 40.2204 29.2782 39.9283 29.5341C39.8879 29.5696 39.8473 29.6049 39.8066 29.6403L39.8065 29.6405C39.248 30.1269 38.6752 30.6259 38.1976 31.5825C37.9955 31.9873 38.0081 32.2906 38.1057 32.5676C38.218 32.8863 38.4601 33.2156 38.8151 33.6067C38.9156 33.7174 39.0333 33.8409 39.1577 33.9714L39.1578 33.9716L39.1578 33.9716C39.4187 34.2454 39.7091 34.55 39.9325 34.8329C40.2795 35.2724 40.628 35.845 40.628 36.5427C40.628 37.0277 40.654 37.4581 40.6792 37.8758L40.6909 38.0711C40.7184 38.5386 40.7407 39.0129 40.6983 39.48C40.6075 40.4812 40.2259 41.3778 39.2308 42.3743C38.1185 43.4883 36.6584 43.8764 35.2815 43.4896C33.9179 43.1065 32.7525 41.9995 32.0952 40.3537C31.9393 39.9634 32.1323 39.5219 32.5262 39.3674C32.9201 39.213 33.3659 39.4042 33.5217 39.7945C34.0398 41.0915 34.8837 41.798 35.7001 42.0273C36.5032 42.2529 37.394 42.0525 38.1401 41.3053C38.9082 40.5361 39.1143 39.9613 39.1703 39.3439C39.2014 39.0017 39.187 38.63 39.1593 38.1594L39.148 37.9714L39.148 37.9713C39.1228 37.5549 39.0938 37.0766 39.0938 36.5427C39.0938 36.3575 39.0015 36.1208 38.724 35.7694C38.5409 35.5374 38.3431 35.3308 38.1179 35.0955L38.1178 35.0955L38.1178 35.0954C37.981 34.9525 37.8341 34.7991 37.6743 34.623C37.2946 34.2048 36.8756 33.6881 36.6573 33.0687C36.4243 32.4077 36.4369 31.681 36.8225 30.9086C37.4378 29.6762 38.2118 29.0039 38.7829 28.5079C38.8272 28.4695 38.8702 28.4321 38.9119 28.3956C39.2075 28.1366 39.3887 27.9597 39.5081 27.7743C39.6111 27.6143 39.6815 27.4257 39.6815 27.1256V24.7713C39.6815 21.7583 37.1933 20.2342 35.1593 20.2342C33.5643 20.2342 32.1033 21.2611 31.5907 21.7744C31.2927 22.0728 30.807 22.0754 30.5059 21.7802C30.2047 21.485 30.2021 21.0039 30.5 20.7055C31.1628 20.0417 32.993 18.7143 35.1593 18.7143C36.6875 18.7143 38.4526 19.3731 39.6815 20.6975V14.7657C39.6815 13.5924 39.6587 12.6309 39.5793 11.8431C39.4995 11.0501 39.3669 10.4863 39.1774 10.0847C38.9984 9.70524 38.7708 9.47309 38.4633 9.3196C38.1334 9.1549 37.6517 9.05144 36.9224 9.05144C36.6648 9.05144 35.3651 9.12426 33.9587 9.23621C32.5322 9.34975 31.1387 9.49336 30.6456 9.61683C29.5446 9.89253 28.6332 10.2928 27.8664 10.9327C27.1012 11.5713 26.4328 12.4882 25.8816 13.8682C25.443 14.9664 25.0122 16.2606 24.6922 17.4922C24.3688 18.7368 24.1723 19.8654 24.1723 20.6514C24.1723 21.5395 24.1746 22.7863 24.4483 24.0196C24.7222 25.2538 25.2474 26.3785 26.2195 27.1086C28.2071 28.6015 29.1722 30.2539 29.4231 31.0076C29.5557 31.4062 29.3371 31.8359 28.9348 31.9673C28.5324 32.0988 28.0987 31.8822 27.966 31.4836C27.8251 31.0601 27.0662 29.652 25.2926 28.3198C23.9138 27.2842 23.2637 25.7603 22.9499 24.3459C22.8689 23.9808 22.8089 23.6166 22.7645 23.262L21.012 24.8251ZM16.5353 21.25V18.4912L21.6271 22.2644L16.5353 26.8061V22.75H18.7972C19.2124 22.75 19.549 22.4142 19.549 22C19.549 21.5858 19.2124 21.25 18.7972 21.25H16.5353ZM12.4287 29.75H15.1202L15.8109 35.2505L15.8026 35.2502L15.7834 35.25H11.7653C11.7561 35.25 11.7471 35.2502 11.738 35.2505L12.4287 29.75ZM9.50358 17.75V28.25H15.0317V17.75H9.50358Z" fill="#289BDE"/>
</svg>
