<svg width="52" height="52" viewBox="0 0 52 52" fill="none" xmlns="http://www.w3.org/2000/svg">
<rect width="52" height="52" fill="white"/>
<path fill-rule="evenodd" clip-rule="evenodd" d="M25.3681 6.17547C25.6476 5.94151 26.0551 5.94151 26.3346 6.17547L33.1358 11.8689V8.25C33.1358 7.83579 33.4724 7.5 33.8876 7.5H38.9103C39.3255 7.5 39.662 7.83579 39.662 8.25V17.25C39.662 17.2766 39.6607 17.3029 39.658 17.3287L48.4341 24.6755C48.7522 24.9417 48.7937 25.4148 48.5268 25.7321C48.2599 26.0494 47.7857 26.0908 47.4676 25.8245L25.8513 7.72907L4.23506 25.8245C3.917 26.0908 3.4428 26.0494 3.17591 25.7321C2.90902 25.4148 2.9505 24.9417 3.26856 24.6755L25.3681 6.17547ZM38.1585 16.0735L34.6394 13.1276V9H38.1585V16.0735ZM25.3725 13.172C25.6505 12.9427 26.0526 12.9427 26.3306 13.172L43.9098 27.672C44.2298 27.9359 44.2747 28.4087 44.0101 28.7279C43.7456 29.0471 43.2717 29.092 42.9517 28.828L41.1689 27.3575V45.75C41.1689 46.1642 40.8323 46.5 40.4171 46.5H30.8738H21.3308H11.2859C10.8707 46.5 10.5341 46.1642 10.5341 45.75V27.3576L8.75145 28.828C8.43146 29.092 7.95758 29.0471 7.69301 28.7279C7.42843 28.4087 7.47336 27.9359 7.79335 27.672L25.3725 13.172ZM22.0826 45H30.122V34.5H22.0826V45ZM31.6256 45V33.75C31.6256 33.3358 31.289 33 30.8738 33H21.3308C20.9156 33 20.5791 33.3358 20.5791 33.75V45H12.0377V26.25C12.0377 26.2077 12.0342 26.1662 12.0275 26.1258L25.8516 14.7232L39.6756 26.1258C39.6688 26.1662 39.6653 26.2077 39.6653 26.25V45H31.6256Z" fill="#289BDE"/>
</svg>
