<svg width="52" height="52" viewBox="0 0 52 52" fill="none" xmlns="http://www.w3.org/2000/svg">
<rect width="52" height="52" fill="white"/>
<path fill-rule="evenodd" clip-rule="evenodd" d="M30.2106 4.83841C30.6286 4.45763 30.8097 4.49798 30.8466 4.5062L30.847 4.50627C30.9586 4.53113 31.1283 4.6412 31.4169 4.96255C31.503 5.05839 31.5788 5.14798 31.6613 5.24564C31.7159 5.31016 31.7734 5.3782 31.8389 5.4539C31.9875 5.62578 32.1607 5.81702 32.3541 5.98363C32.4881 6.09911 32.6447 6.21282 32.8221 6.30373L30.2275 13.0005H22.9152L19.9689 6.48271C20.6496 6.36306 21.4059 6.00848 21.9975 5.2001C22.1611 4.97656 22.2962 4.92127 22.3928 4.90274C22.5149 4.87934 22.692 4.89465 22.951 4.98903C23.2093 5.08314 23.4851 5.23141 23.7913 5.40755C23.8416 5.43651 23.8939 5.4669 23.9475 5.49809L23.9476 5.49813L23.9476 5.49816C24.1931 5.641 24.467 5.80037 24.7152 5.91341C25.2757 6.1687 26.0646 6.46664 27.0329 6.39314C28.0137 6.31869 29.0751 5.87278 30.2106 4.83841ZM21.2658 13.0005L18.1071 6.01277C17.9858 5.74447 18.0331 5.4302 18.2279 5.20918C18.4227 4.98816 18.7291 4.90125 19.0114 4.98695C19.3349 5.0852 20.2004 5.11197 20.7832 4.3156C21.1392 3.82919 21.5887 3.5295 22.109 3.42971C22.604 3.33478 23.0764 3.4378 23.4668 3.58007C23.858 3.72261 24.2316 3.92932 24.5425 4.10815C24.6103 4.14717 24.6743 4.18436 24.7352 4.21968C24.9759 4.35942 25.1663 4.46994 25.3397 4.54889C25.8183 4.7669 26.3284 4.94228 26.9188 4.89746C27.4968 4.85359 28.2539 4.58956 29.1967 3.73072C29.8167 3.16602 30.48 2.88766 31.1745 3.0423C31.7935 3.18013 32.2408 3.6321 32.5367 3.96154C32.6337 4.06946 32.7392 4.194 32.8346 4.30658L32.8348 4.30686L32.8349 4.30695L32.835 4.30703C32.8864 4.3677 32.9348 4.42488 32.9774 4.4741C33.1149 4.63316 33.2299 4.75622 33.3369 4.84845C33.536 5.01997 33.5996 5.00004 33.6372 4.98826L33.6414 4.98695C33.9165 4.90342 34.2153 4.98377 34.4111 5.19393C34.6068 5.4041 34.6652 5.70726 34.5616 5.97485L31.8395 13.0005H31.8514C32.2666 13.0005 32.6032 13.3363 32.6032 13.7505V15.0536C33.557 15.0537 34.6282 14.7541 35.2445 13.8339C35.5033 13.4474 35.6921 13.0813 35.866 12.7233C35.8977 12.6579 35.9298 12.591 35.9623 12.5231L35.9626 12.5225L35.9627 12.5223C36.1002 12.2353 36.2456 11.9315 36.4086 11.6597C36.6209 11.3058 36.8862 10.962 37.2714 10.67C37.6557 10.3786 38.1219 10.167 38.7012 10.0228C39.4704 9.83137 40.0145 9.63603 40.3747 9.4771C40.6847 9.34026 40.8234 9.24577 40.857 9.22288M22.4162 14.5005C22.4206 14.5006 22.4251 14.5006 22.4295 14.5006H30.7428C30.7473 14.5006 30.7517 14.5006 30.7562 14.5005H31.0996V17.0005H26.8287H21.5534V14.5005H22.4162ZM21.2658 13.0005H20.8016C20.3864 13.0005 20.0498 13.3363 20.0498 13.7505V17.7505C20.0498 17.8101 20.0568 17.8681 20.07 17.9236C16.7399 18.9317 14.3127 20.6758 12.5932 22.7036C9.8988 25.8811 9 29.6865 9 32.2505V45.7505C9 47.2981 9.8921 48.2679 10.902 48.8107C11.8794 49.3362 13.0161 49.5005 13.7699 49.5005H38.3807C40.3299 49.5005 41.6586 48.9586 42.5072 48.1763C43.3447 47.4044 43.6529 46.4522 43.6529 45.7505V32.2505C43.6529 29.3622 42.734 25.5565 40.1517 22.4585C38.4182 20.3788 35.9616 18.6503 32.6032 17.7264V17.2996L32.6143 17.3036C33.2542 17.53 34.0945 17.6538 34.9066 17.653C35.7072 17.6522 36.5903 17.5305 37.2692 17.1764C37.7002 16.9516 38.0209 16.7071 38.2845 16.481C38.4194 16.3654 38.5159 16.2772 38.6001 16.2003L38.6001 16.2003L38.6002 16.2002L38.6002 16.2002L38.6002 16.2002L38.6003 16.2001L38.6003 16.2001C38.7051 16.1043 38.7906 16.0261 38.9073 15.9342C39.0698 15.8062 39.2173 15.7198 39.4042 15.6634C39.5977 15.6051 39.8753 15.5665 40.3078 15.594C41.128 15.6462 41.7507 15.6416 42.2034 15.6119C42.6259 15.5841 42.9672 15.5309 43.1783 15.4472C43.5643 15.2942 43.7531 14.8582 43.6 14.4734C43.4469 14.0886 43.0098 13.9007 42.6237 14.0537C42.6292 14.0516 42.6268 14.0521 42.6154 14.0545C42.575 14.0629 42.4221 14.0947 42.1059 14.1155C41.73 14.1401 41.1735 14.1463 40.4049 14.0974C39.8444 14.0618 39.3786 14.1048 38.97 14.228C38.5547 14.3533 38.2413 14.5485 37.9757 14.7577C37.8351 14.8685 37.666 15.021 37.5187 15.1538L37.5187 15.1539L37.5186 15.1539L37.5186 15.1539C37.438 15.2267 37.3639 15.2935 37.3046 15.3443C37.0975 15.5218 36.8721 15.6917 36.5731 15.8477C36.2038 16.0403 35.6007 16.1526 34.9064 16.1533C34.8344 16.1534 34.7625 16.1522 34.6912 16.15C35.3653 15.8641 36.0054 15.3978 36.4947 14.6671C36.8103 14.1959 37.0342 13.7582 37.2192 13.3773C37.26 13.2932 37.298 13.2139 37.3341 13.1388L37.3347 13.1375L37.3348 13.1373L37.3348 13.1373L37.3348 13.1372L37.3348 13.1372L37.3349 13.1371C37.4687 12.8583 37.5755 12.6357 37.6989 12.4298C37.8454 12.1856 37.9925 12.0073 38.1812 11.8642C38.3708 11.7205 38.64 11.584 39.0652 11.4782C39.9032 11.2696 40.5311 11.0483 40.9829 10.8489C41.4074 10.6616 41.7396 10.4664 41.9255 10.2814C42.2194 9.9888 42.22 9.51393 41.9267 9.22072C41.6334 8.92752 41.1574 8.92701 40.8635 9.21959M35.3707 33.7505C35.3707 38.4419 31.5494 42.2505 26.829 42.2505C22.1085 42.2505 18.2873 38.4419 18.2873 33.7505C18.2873 29.0591 22.1085 25.2505 26.829 25.2505C31.5494 25.2505 35.3707 29.0591 35.3707 33.7505ZM36.8742 33.7505C36.8742 39.2733 32.3768 43.7505 26.829 43.7505C21.2812 43.7505 16.7838 39.2733 16.7838 33.7505C16.7838 28.2276 21.2812 23.7505 26.829 23.7505C32.3768 23.7505 36.8742 28.2276 36.8742 33.7505ZM30.877 29.2207C31.1703 29.5139 31.1698 29.9888 30.8759 30.2814L22.8397 38.2814C22.5458 38.574 22.0698 38.5735 21.7765 38.2803C21.4832 37.987 21.4837 37.5122 21.7776 37.2196L29.8138 29.2196C30.1077 28.927 30.5837 28.9275 30.877 29.2207ZM24.3205 30.7505C24.3205 31.0236 24.0972 31.2505 23.815 31.2505C23.5328 31.2505 23.3096 31.0236 23.3096 30.7505C23.3096 30.4774 23.5328 30.2505 23.815 30.2505C24.0972 30.2505 24.3205 30.4774 24.3205 30.7505ZM25.8241 30.7505C25.8241 31.8551 24.9246 32.7505 23.815 32.7505C22.7055 32.7505 21.806 31.8551 21.806 30.7505C21.806 29.6459 22.7055 28.7505 23.815 28.7505C24.9246 28.7505 25.8241 29.6459 25.8241 30.7505ZM28.8377 37.2505C29.1199 37.2505 29.3432 37.0236 29.3432 36.7505C29.3432 36.4774 29.1199 36.2505 28.8377 36.2505C28.5556 36.2505 28.3323 36.4774 28.3323 36.7505C28.3323 37.0236 28.5556 37.2505 28.8377 37.2505ZM28.8377 38.7505C29.9473 38.7505 30.8468 37.8551 30.8468 36.7505C30.8468 35.6459 29.9473 34.7505 28.8377 34.7505C27.7282 34.7505 26.8287 35.6459 26.8287 36.7505C26.8287 37.8551 27.7282 38.7505 28.8377 38.7505ZM13.7411 23.6724C16.1455 20.8369 20.1958 18.5005 26.8287 18.5005C32.9063 18.5005 36.7038 20.6681 38.9956 23.4175C41.3102 26.1944 42.1493 29.6388 42.1493 32.2505V45.7505C42.1493 46.0488 42.0055 46.5966 41.4868 47.0746C40.9793 47.5424 40.0478 48.0005 38.3807 48.0005H13.7699C13.1843 48.0005 12.3119 47.8648 11.6152 47.4902C10.9508 47.1331 10.5036 46.6029 10.5036 45.7505V32.2505C10.5036 29.9811 11.3125 26.5365 13.7411 23.6724Z" fill="#289BDE"/>
</svg>
