<svg width="51" height="51" viewBox="0 0 51 51" fill="none" xmlns="http://www.w3.org/2000/svg">
<path fill-rule="evenodd" clip-rule="evenodd" d="M41.9781 8.22245C42.2695 8.51688 42.267 8.99174 41.9726 9.2831L31.3713 19.774C32.2773 20.9542 32.8158 22.4313 32.8158 24.0342C32.8158 27.9017 29.6806 31.0368 25.8132 31.0368C24.184 31.0368 22.6847 30.4805 21.495 29.5473L8.6252 42.2831C8.33078 42.5745 7.85591 42.572 7.56456 42.2775C7.2732 41.9831 7.27569 41.5083 7.57011 41.2169L15.8151 33.0578C14.6359 32.4108 13.0615 31.4053 11.5451 30.1533C9.74915 28.6705 7.96352 26.784 7.06064 24.6773C6.97268 24.472 6.98075 24.2383 7.08264 24.0396C9.50518 19.3156 17.7694 10.769 31.5386 13.9245C31.9423 14.017 32.1946 14.4193 32.1021 14.823C32.0096 15.2268 31.6073 15.4791 31.2035 15.3866C18.6049 12.4994 10.9978 20.039 8.586 24.4075C9.39362 26.0741 10.8799 27.6588 12.5001 28.9966C14.1207 30.3347 15.8126 31.3746 16.9312 31.9533L20.4199 28.501C19.4148 27.2887 18.8105 25.732 18.8105 24.0342C18.8105 20.1668 21.9457 17.0316 25.8132 17.0316C27.5373 17.0316 29.116 17.6547 30.3361 18.688L40.9175 8.2169C41.2119 7.92554 41.6868 7.92803 41.9781 8.22245ZM25.8132 18.5316C27.1202 18.5316 28.3207 18.9872 29.2646 19.7484L21.4914 27.4406C20.7519 26.5037 20.3105 25.3205 20.3105 24.0342C20.3105 20.9952 22.7742 18.5316 25.8132 18.5316ZM30.2942 20.8398L22.5721 28.4815C23.4812 29.1452 24.6014 29.5368 25.8132 29.5368C28.8522 29.5368 31.3158 27.0732 31.3158 24.0342C31.3158 22.8431 30.9374 21.7404 30.2942 20.8398ZM37.3001 17.4462C37.4853 17.0757 37.9358 16.9255 38.3063 17.1108C39.8351 17.8752 41.1892 19.2147 42.2454 20.5238C43.3085 21.8415 44.1189 23.19 44.547 24.0462C44.6587 24.2696 44.6518 24.534 44.5287 24.7514C39.6198 33.4141 30.0119 35.5526 25.813 35.5526C25.3988 35.5526 25.063 35.2169 25.063 34.8026C25.063 34.3884 25.3988 34.0526 25.813 34.0526C29.6617 34.0526 38.4209 32.0822 43.02 24.3622C42.6039 23.5951 41.9289 22.5204 41.078 21.4657C40.0789 20.2274 38.8856 19.0775 37.6355 18.4524C37.265 18.2672 37.1148 17.8167 37.3001 17.4462Z" fill="#289BDE"/>
</svg>
