<svg width="51" height="51" viewBox="0 0 51 51" fill="none" xmlns="http://www.w3.org/2000/svg">
<path fill-rule="evenodd" clip-rule="evenodd" d="M8.66974 19.1899C10.4501 14.6938 15.6974 7.5 25.6109 7.5C36.3771 7.5 41.4133 16.474 42.5789 21.0196C42.6818 21.4209 43.0904 21.6627 43.4917 21.5598C43.8929 21.457 44.1348 21.0483 44.0319 20.6471C42.79 15.8038 37.3781 6 25.6109 6C14.9144 6 9.25888 13.7099 7.30225 18.5735L6.45505 16.2437C6.31349 15.8544 5.88317 15.6536 5.4939 15.7951C5.10462 15.9367 4.9038 16.367 5.04536 16.7563L6.4898 20.7285C6.62866 21.1104 7.04635 21.3122 7.43182 21.1837L11.7652 19.7393C12.1581 19.6083 12.3705 19.1836 12.2395 18.7906C12.1085 18.3976 11.6838 18.1853 11.2908 18.3163L8.66974 19.1899Z" fill="#289BDE"/>
<path fill-rule="evenodd" clip-rule="evenodd" d="M41.8308 32.2268C40.0504 36.723 34.8031 43.9167 24.8896 43.9167C14.1234 43.9168 9.08714 34.9427 7.92161 30.3971C7.81873 29.9959 7.41007 29.754 7.00883 29.8569C6.6076 29.9598 6.36574 30.3685 6.46861 30.7697C7.71049 35.613 13.1224 45.4168 24.8896 45.4167C35.5861 45.4167 41.2416 37.7068 43.1982 32.8433L44.0454 35.173C44.187 35.5623 44.6173 35.7631 45.0066 35.6216C45.3959 35.48 45.5967 35.0497 45.4551 34.6604L44.0107 30.6882C43.8718 30.3063 43.4541 30.1045 43.0687 30.233L38.7353 31.6774C38.3424 31.8084 38.13 32.2332 38.261 32.6261C38.392 33.0191 38.8167 33.2314 39.2097 33.1005L41.8308 32.2268Z" fill="#289BDE"/>
<path fill-rule="evenodd" clip-rule="evenodd" d="M21.6116 15.6945C21.6116 14.728 22.3951 13.9445 23.3616 13.9445H27.1394C28.1058 13.9445 28.8894 14.728 28.8894 15.6945V17.3056C28.8894 17.4437 29.0013 17.5556 29.1394 17.5556H30.0282C30.9947 17.5556 31.7782 18.3391 31.7782 19.3056V35.3612C31.7782 36.3277 30.9947 37.1112 30.0282 37.1112H20.1116C19.1451 37.1112 18.3616 36.3277 18.3616 35.3612V19.3056C18.3616 18.3391 19.1451 17.5556 20.1116 17.5556H21.3616C21.4996 17.5556 21.6116 17.4437 21.6116 17.3056V15.6945ZM23.3616 15.4445C23.2235 15.4445 23.1116 15.5564 23.1116 15.6945V17.3056C23.1116 18.2721 22.3281 19.0556 21.3616 19.0556H20.1116C19.9735 19.0556 19.8616 19.1675 19.8616 19.3056V35.3612C19.8616 35.4992 19.9735 35.6112 20.1116 35.6112H30.0282C30.1663 35.6112 30.2782 35.4992 30.2782 35.3612V19.3056C30.2782 19.1675 30.1663 19.0556 30.0282 19.0556H29.1394C28.1729 19.0556 27.3894 18.2721 27.3894 17.3056V15.6945C27.3894 15.5564 27.2774 15.4445 27.1394 15.4445H23.3616Z" fill="#289BDE"/>
<path fill-rule="evenodd" clip-rule="evenodd" d="M26.4473 21.3361C26.7679 21.5984 26.8151 22.0709 26.5529 22.3915L24.3051 25.1387H26.4666C27.3247 25.1387 27.8205 26.1123 27.3158 26.8063L24.7734 30.3021C24.5298 30.6371 24.0607 30.7112 23.7257 30.4675C23.3907 30.2239 23.3166 29.7548 23.5603 29.4198L25.5829 26.6387H23.3555C22.4697 26.6387 21.9819 25.6094 22.5428 24.9238L25.3919 21.4416C25.6542 21.121 26.1267 21.0738 26.4473 21.3361Z" fill="#289BDE"/>
</svg>
