<svg width="22" height="20" viewBox="0 0 22 20" fill="none" xmlns="http://www.w3.org/2000/svg">
<path fill-rule="evenodd" clip-rule="evenodd" d="M11 0.779053C11.5523 0.779053 12 1.22677 12 1.77905V12.7906L16.3609 9.16733C16.7857 8.81439 17.4162 8.87264 17.7692 9.29743C18.1221 9.72223 18.0639 10.3527 17.6391 10.7057L11.6466 15.6845C11.4722 15.8324 11.2465 15.9217 11 15.9217C10.7535 15.9217 10.5278 15.8324 10.3534 15.6845L4.36094 10.7057C3.93615 10.3527 3.8779 9.72223 4.23084 9.29743C4.58378 8.87264 5.21426 8.81439 5.63906 9.16733L10 12.7906V1.77905C10 1.22677 10.4477 0.779053 11 0.779053ZM21.5 14.4685C21.5 13.9162 21.0523 13.4685 20.5 13.4685C19.9477 13.4685 19.5 13.9162 19.5 14.4685V18.0004H2V14.9217C2 14.3694 1.55228 13.9217 1 13.9217C0.447715 13.9217 0 14.3694 0 14.9217V19.0004C0 19.5527 0.447715 20.0004 1 20.0004H20.5C21.0523 20.0004 21.5 19.5527 21.5 19.0004V14.4685Z" fill="#289BDE"/>
</svg>
