<svg width="21" height="21" viewBox="0 0 21 21" fill="none" xmlns="http://www.w3.org/2000/svg">
<path fill-rule="evenodd" clip-rule="evenodd" d="M17.6138 3.38075C15.7347 1.50801 13.2313 0.476648 10.5673 0.473633C5.07857 0.473633 0.608198 4.91875 0.608198 10.3832C0.608198 12.1292 1.06584 13.8361 1.9387 15.3379L0.526367 20.4736L5.80595 19.0955C7.26072 19.8856 8.89733 20.3017 10.5642 20.3017H10.5673C16.056 20.3017 20.5233 15.8566 20.5264 10.3922C20.5294 7.74444 19.4959 5.25349 17.6138 3.38075ZM10.5703 18.628H10.5673C9.08221 18.628 7.62441 18.23 6.35452 17.4791L6.05144 17.3011L2.91764 18.1184L3.75413 15.0786L3.55713 14.768C2.72973 13.4561 2.29027 11.9423 2.29027 10.3832C2.2933 5.84155 6.00598 2.14734 10.5733 2.14734C12.7858 2.14734 14.8619 3.00681 16.4257 4.5629C17.9896 6.11899 18.8503 8.19076 18.8473 10.3892C18.8473 14.9338 15.1316 18.628 10.5703 18.628ZM15.1104 12.458C14.8619 12.3343 13.6374 11.7342 13.4101 11.6528C13.1828 11.5713 13.0161 11.5291 12.8494 11.7764C12.6828 12.0237 12.2069 12.5816 12.0614 12.7475C11.916 12.9133 11.7705 12.9344 11.522 12.8108C11.2734 12.6871 10.4703 12.4248 9.52167 11.5804C8.78216 10.923 8.28209 10.1118 8.13661 9.86447C7.99113 9.61718 8.12145 9.48147 8.24572 9.35783C8.35785 9.24625 8.49424 9.06833 8.6185 8.92357C8.74276 8.77882 8.78519 8.67629 8.86702 8.51042C8.94885 8.34456 8.90945 8.19981 8.84581 8.07617C8.78216 7.95252 8.28512 6.73419 8.07902 6.2366C7.87596 5.75409 7.6729 5.82044 7.51833 5.81139C7.37286 5.80536 7.20617 5.80234 7.0425 5.80234C6.87581 5.80234 6.60607 5.86567 6.37877 6.11296C6.15146 6.36024 5.50894 6.96036 5.50894 8.1787C5.50894 9.39703 6.39998 10.5762 6.52424 10.739C6.6485 10.9049 8.27905 13.4049 10.7764 14.4785C11.3704 14.7348 11.8341 14.8856 12.1948 15.0002C12.7919 15.1902 13.3344 15.163 13.7617 15.0997C14.2406 15.0273 15.2347 14.4996 15.4407 13.9236C15.6468 13.3446 15.6468 12.85 15.5862 12.7475C15.5256 12.6449 15.3589 12.5846 15.1104 12.458Z" fill="white"/>
</svg>
