<svg width="51" height="51" viewBox="0 0 51 51" fill="none" xmlns="http://www.w3.org/2000/svg">
<path fill-rule="evenodd" clip-rule="evenodd" d="M18.795 7.05767C19.0745 6.94124 19.3967 7.00435 19.6116 7.21764L28.9449 16.4791C29.0868 16.6199 29.1667 16.8115 29.1667 17.0114C29.1667 17.2113 29.0868 17.403 28.9449 17.5438L20.675 25.75L28.9449 33.9562C29.0868 34.097 29.1667 34.2887 29.1667 34.4886C29.1667 34.6885 29.0868 34.8802 28.9449 35.021L19.6116 44.2824C19.3967 44.4957 19.0745 44.5588 18.795 44.4424C18.5154 44.326 18.3333 44.0528 18.3333 43.75V28.0736L10.2783 36.0666C9.98425 36.3584 9.50938 36.3566 9.21762 36.0625C8.92586 35.7685 8.9277 35.2936 9.22173 35.0019L18.3333 25.9605V25.5396L9.22173 16.4982C8.9277 16.2064 8.92586 15.7315 9.21762 15.4375C9.50938 15.1435 9.98425 15.1417 10.2783 15.4334L18.3333 23.4264V7.75002C18.3333 7.4472 18.5154 7.17409 18.795 7.05767ZM19.8333 27.028L27.3519 34.4886L19.8333 41.9492V27.028ZM19.8333 24.472V9.55082L27.3519 17.0114L19.8333 24.472ZM31.6623 18.0841C31.9196 17.7595 32.3914 17.705 32.716 17.9623C33.7476 18.78 35.7001 21.177 35.7001 24.5427C35.7001 27.919 33.7361 30.1391 32.6748 30.8682C32.3333 31.1027 31.8664 31.0161 31.6319 30.6747C31.3973 30.3333 31.484 29.8664 31.8254 29.6318C32.5641 29.1244 34.2001 27.3303 34.2001 24.5427C34.2001 21.7445 32.5525 19.7468 31.7842 19.1378C31.4596 18.8805 31.405 18.4087 31.6623 18.0841ZM36.4422 11.1838C36.1295 10.9121 35.6558 10.9454 35.3841 11.258C35.1124 11.5707 35.1456 12.0444 35.4583 12.3161C37.104 13.7461 40.5336 18.3085 40.5336 24.7256C40.5336 31.1345 37.1128 35.2689 35.4991 36.4842C35.1682 36.7333 35.1019 37.2036 35.3511 37.5345C35.6003 37.8653 36.0705 37.9316 36.4014 37.6824C38.3432 36.2201 42.0336 31.663 42.0336 24.7256C42.0336 17.7963 38.352 12.8433 36.4422 11.1838Z" fill="#289BDE"/>
</svg>
